# xmcd
#
# Track frame offsets:
#	150
#	11315
#	25922
#	41610
#	57451
#	70448
#	78830
#	94205
#	113604
#	126509
#	141169
#	155638
#	169440
#	187148
#	201793
#
# Disc length: 2896 seconds
#
# Revision: 1
# Processed by: cddbd v1.5.2PL0 Copyright (c) Steve Scherf et al.
# Submitted via: audiograbber 1.83.01
#
DISCID=d70b4e0f
DTITLE=Various Artist - nscd 4023
DYEAR=1900
DGENRE=
TTITLE0=Sold (Grundy County Auction)-Montgomery
TTITLE1=Not on Your Love - Jeff Carson
TTITLE2=Walking To Jerusalem - Tracy Bird
TTITLE3=Finish What We Started - Diamond Rio
TTITLE4=Folsom Prison Blues - Johnny Cash
TTITLE5=Can't Ever Get the Blues - Reca McEntire
TTITLE6=Sometimes I Forget - Doug Stone
TTITLE7=Come in Out of the Pain - Doug Stone
TTITLE8=Should Have Asked Her Faster - Ty England
TTITLE9=You Can Sleep While I Drive - Trisha Yearwood
TTITLE10=She Ain't Your Ordinary Girl - Alabama
TTITLE11=Back in My Younger Days - Don lWilliams
TTITLE12=Feed Jake - Pirates of the Miss
TTITLE13=Ain't Going Down - Garth Brooks
TTITLE14=All My Ex's Live In Texas - George Strait
EXTD=Country Hits Volume 23
EXTT0=
EXTT1=
EXTT2=
EXTT3=
EXTT4=
EXTT5=
EXTT6=
EXTT7=
EXTT8=
EXTT9=
EXTT10=
EXTT11=
EXTT12=
EXTT13=
EXTT14=
PLAYORDER=
